<svg xmlns="http://www.w3.org/2000/svg" xmlns:xlink="http://www.w3.org/1999/xlink" width="450" viewBox="0 0 450 75" height="75" version="1.0"><defs><clipPath id="a"><path d="M 13.371094 50 L 39 50 L 39 71.25 L 13.371094 71.25 Z M 13.371094 50"/></clipPath><clipPath id="b"><path d="M 38.613281 50.066406 L 38.613281 57.035156 C 38.613281 63.804688 34.480469 71.242188 26.210938 71.242188 L 13.371094 71.242188 C 15.289062 56.429688 20.53125 50.066406 38.613281 50.066406 Z M 38.613281 50.066406" clip-rule="evenodd"/></clipPath><clipPath id="d"><path d="M 13.371094 50 L 39 50 L 39 71.25 L 13.371094 71.25 Z M 13.371094 50"/></clipPath><clipPath id="e"><path d="M 38.613281 50.066406 L 38.613281 53.796875 C 24.390625 54.734375 18.339844 57.949219 13.546875 71.242188 L 13.371094 71.242188 C 15.289062 56.429688 20.53125 50.066406 38.613281 50.066406 Z M 38.613281 50.066406" clip-rule="evenodd"/></clipPath><clipPath id="f"><path d="M 13.371094 22 L 64.371094 22 L 64.371094 71.25 L 13.371094 71.25 Z M 13.371094 22"/></clipPath><clipPath id="g"><path d="M 38.808594 22.925781 L 38.808594 29.753906 L 58.074219 29.753906 C 61.269531 29.753906 64.371094 30.425781 64.371094 33.820312 L 64.371094 45.191406 C 64.371094 47.871094 61.960938 50.0625 58.980469 50.0625 L 38.613281 50.0625 C 20.53125 50.0625 15.289062 56.429688 13.371094 71.238281 L 13.371094 38.160156 C 15.953125 27.167969 22.71875 22.925781 38.808594 22.925781 Z M 21.980469 34.585938 C 22.792969 33.847656 24.144531 33.847656 24.957031 34.585938 L 26.878906 36.347656 L 28.820312 34.585938 C 29.023438 34.40625 29.253906 34.269531 29.507812 34.175781 C 29.761719 34.078125 30.023438 34.03125 30.296875 34.03125 C 30.566406 34.03125 30.832031 34.078125 31.085938 34.175781 C 31.339844 34.269531 31.566406 34.40625 31.773438 34.585938 C 31.972656 34.753906 32.125 34.957031 32.234375 35.191406 C 32.34375 35.425781 32.398438 35.675781 32.398438 35.9375 C 32.398438 36.195312 32.34375 36.445312 32.234375 36.679688 C 32.125 36.917969 31.972656 37.117188 31.773438 37.289062 L 29.855469 39.03125 L 31.28125 40.347656 L 31.773438 40.792969 C 31.972656 40.960938 32.125 41.160156 32.234375 41.394531 C 32.34375 41.628906 32.398438 41.875 32.398438 42.132812 C 32.398438 42.394531 32.34375 42.640625 32.234375 42.875 C 32.125 43.109375 31.972656 43.308594 31.773438 43.476562 C 31.570312 43.660156 31.34375 43.800781 31.089844 43.898438 C 30.832031 43.996094 30.570312 44.046875 30.296875 44.046875 C 30.023438 44.046875 29.761719 43.996094 29.503906 43.898438 C 29.25 43.800781 29.023438 43.660156 28.820312 43.476562 L 27.761719 42.515625 L 26.878906 41.734375 L 24.960938 43.476562 C 24.757812 43.65625 24.527344 43.800781 24.269531 43.898438 C 24.015625 43.996094 23.75 44.042969 23.472656 44.042969 C 23.199219 44.042969 22.933594 43.996094 22.675781 43.898438 C 22.421875 43.800781 22.191406 43.65625 21.984375 43.476562 C 21.792969 43.304688 21.640625 43.105469 21.535156 42.871094 C 21.425781 42.636719 21.375 42.390625 21.375 42.132812 C 21.375 41.878906 21.425781 41.632812 21.535156 41.398438 C 21.640625 41.164062 21.792969 40.964844 21.984375 40.792969 L 23.929688 39.03125 L 21.980469 37.289062 C 21.789062 37.117188 21.636719 36.914062 21.53125 36.675781 C 21.425781 36.441406 21.371094 36.195312 21.371094 35.9375 C 21.371094 35.675781 21.425781 35.429688 21.53125 35.195312 C 21.636719 34.960938 21.789062 34.753906 21.980469 34.585938 Z M 57.777344 41.800781 C 57.777344 42.847656 56.835938 43.699219 55.6875 43.699219 L 46.015625 43.699219 C 44.886719 43.699219 43.929688 42.847656 43.929688 41.800781 C 43.929688 40.75 44.886719 39.902344 46.015625 39.902344 L 55.6875 39.902344 C 56.84375 39.902344 57.773438 40.75 57.773438 41.800781 Z M 57.777344 36.683594 C 57.777344 37.734375 56.835938 38.582031 55.6875 38.582031 L 46.015625 38.582031 C 44.886719 38.582031 43.929688 37.734375 43.929688 36.683594 C 43.929688 35.65625 44.886719 34.804688 46.015625 34.804688 L 55.6875 34.804688 C 56.84375 34.804688 57.773438 35.652344 57.773438 36.683594 Z M 57.777344 36.683594" clip-rule="evenodd"/></clipPath><clipPath id="i"><path d="M 13.371094 22 L 39 22 L 39 39 L 13.371094 39 Z M 13.371094 22"/></clipPath><clipPath id="j"><path d="M 38.808594 22.925781 L 38.808594 27.167969 C 26.015625 27.214844 19.765625 27.839844 13.371094 38.339844 L 13.371094 38.160156 C 15.953125 27.167969 22.71875 22.925781 38.808594 22.925781 Z M 38.808594 22.925781" clip-rule="evenodd"/></clipPath><clipPath id="k"><path d="M 13.371094 3.75 L 64.371094 3.75 L 64.371094 39 L 13.371094 39 Z M 13.371094 3.75"/></clipPath><clipPath id="l"><path d="M 18.757812 3.757812 L 58.980469 3.757812 C 61.960938 3.757812 64.371094 5.96875 64.371094 8.652344 L 64.371094 18.1875 C 64.371094 22.140625 61.445312 22.925781 57.679688 22.925781 L 38.808594 22.925781 C 22.71875 22.925781 15.953125 27.167969 13.371094 38.160156 L 13.371094 8.652344 C 13.371094 5.96875 15.804688 3.757812 18.757812 3.757812 Z M 57.777344 14.324219 C 57.777344 15.367188 56.835938 16.222656 55.6875 16.222656 L 46.015625 16.222656 C 44.886719 16.222656 43.929688 15.375 43.929688 14.324219 C 43.929688 13.273438 44.886719 12.425781 46.015625 12.425781 L 55.6875 12.425781 C 56.84375 12.425781 57.773438 13.273438 57.773438 14.324219 Z M 26.878906 8.246094 C 28.035156 8.246094 28.964844 9.121094 28.964844 10.148438 L 28.964844 12.652344 L 31.71875 12.652344 C 32.875 12.652344 33.808594 13.5 33.808594 14.550781 C 33.808594 15.597656 32.871094 16.449219 31.71875 16.449219 L 28.96875 16.449219 L 28.96875 18.929688 C 28.96875 19.980469 28.027344 20.828125 26.878906 20.828125 C 25.75 20.828125 24.792969 19.980469 24.792969 18.929688 L 24.792969 16.445312 L 22.054688 16.445312 C 20.898438 16.445312 19.964844 15.597656 19.964844 14.546875 C 19.964844 13.496094 20.90625 12.648438 22.054688 12.648438 L 24.785156 12.648438 L 24.785156 10.144531 C 24.785156 9.117188 25.746094 8.242188 26.875 8.242188 Z M 26.878906 8.246094" clip-rule="evenodd"/></clipPath><linearGradient x1="68.117" gradientTransform="matrix(.10443 0 0 .1044 13.37 3.758)" xmlns:xlink="http://www.w3.org/1999/xlink" y1="415.721" x2="173.585" gradientUnits="userSpaceOnUse" y2="674.149" xlink:type="simple" xlink:actuate="onLoad" id="c" xlink:show="other"><stop stop-color="#FE0E23" offset="0"/><stop stop-color="#FE0E23" offset=".004"/><stop stop-color="#FE0F22" offset=".008"/><stop stop-color="#FE1022" offset=".012"/><stop stop-color="#FE1022" offset=".016"/><stop stop-color="#FE1122" offset=".02"/><stop stop-color="#FE1122" offset=".023"/><stop stop-color="#FE1222" offset=".027"/><stop stop-color="#FD1222" offset=".031"/><stop stop-color="#FD1322" offset=".035"/><stop stop-color="#FD1322" offset=".039"/><stop stop-color="#FD1421" offset=".043"/><stop stop-color="#FD1421" offset=".047"/><stop stop-color="#FD1521" offset=".051"/><stop stop-color="#FD1521" offset=".055"/><stop stop-color="#FD1621" offset=".059"/><stop stop-color="#FD1621" offset=".063"/><stop stop-color="#FD1721" offset=".066"/><stop stop-color="#FD1821" offset=".07"/><stop stop-color="#FD1821" offset=".074"/><stop stop-color="#FD1920" offset=".078"/><stop stop-color="#FC1920" offset=".082"/><stop stop-color="#FC1A20" offset=".086"/><stop stop-color="#FC1A20" offset=".09"/><stop stop-color="#FC1B20" offset=".094"/><stop stop-color="#FC1B20" offset=".098"/><stop stop-color="#FC1C20" offset=".102"/><stop stop-color="#FC1C20" offset=".105"/><stop stop-color="#FC1D20" offset=".109"/><stop stop-color="#FC1D1F" offset=".113"/><stop stop-color="#FC1E1F" offset=".117"/><stop stop-color="#FC1E1F" offset=".121"/><stop stop-color="#FC1F1F" offset=".125"/><stop stop-color="#FC201F" offset=".129"/><stop stop-color="#FB201F" offset=".133"/><stop stop-color="#FB211F" offset=".137"/><stop stop-color="#FB211F" offset=".141"/><stop stop-color="#FB221F" offset=".145"/><stop stop-color="#FB221E" offset=".148"/><stop stop-color="#FB231E" offset=".152"/><stop stop-color="#FB231E" offset=".156"/><stop stop-color="#FB241E" offset=".16"/><stop stop-color="#FB241E" offset=".164"/><stop stop-color="#FB251E" offset=".168"/><stop stop-color="#FB251E" offset=".172"/><stop stop-color="#FB261E" offset=".176"/><stop stop-color="#FB271E" offset=".18"/><stop stop-color="#FA271D" offset=".184"/><stop stop-color="#FA281D" offset=".188"/><stop stop-color="#FA281D" offset=".191"/><stop stop-color="#FA291D" offset=".195"/><stop stop-color="#FA291D" offset=".199"/><stop stop-color="#FA2A1D" offset=".203"/><stop stop-color="#FA2A1D" offset=".207"/><stop stop-color="#FA2B1D" offset=".211"/><stop stop-color="#FA2B1D" offset=".215"/><stop stop-color="#FA2C1C" offset=".219"/><stop stop-color="#FA2C1C" offset=".223"/><stop stop-color="#FA2D1C" offset=".227"/><stop stop-color="#FA2D1C" offset=".23"/><stop stop-color="#F92E1C" offset=".234"/><stop stop-color="#F92F1C" offset=".238"/><stop stop-color="#F92F1C" offset=".242"/><stop stop-color="#F9301C" offset=".246"/><stop stop-color="#F9301C" offset=".25"/><stop stop-color="#F9311B" offset=".254"/><stop stop-color="#F9311B" offset=".258"/><stop stop-color="#F9321B" offset=".262"/><stop stop-color="#F9321B" offset=".266"/><stop stop-color="#F9331B" offset=".27"/><stop stop-color="#F9331B" offset=".273"/><stop stop-color="#F9341B" offset=".277"/><stop stop-color="#F9341B" offset=".281"/><stop stop-color="#F8351A" offset=".285"/><stop stop-color="#F8351A" offset=".289"/><stop stop-color="#F8361A" offset=".293"/><stop stop-color="#F8371A" offset=".297"/><stop stop-color="#F8371A" offset=".301"/><stop stop-color="#F8381A" offset=".305"/><stop stop-color="#F8381A" offset=".309"/><stop stop-color="#F8391A" offset=".313"/><stop stop-color="#F8391A" offset=".316"/><stop stop-color="#F83A19" offset=".32"/><stop stop-color="#F83A19" offset=".324"/><stop stop-color="#F83B19" offset=".328"/><stop stop-color="#F73B19" offset=".332"/><stop stop-color="#F73C19" offset=".336"/><stop stop-color="#F73C19" offset=".34"/><stop stop-color="#F73D19" offset=".344"/><stop stop-color="#F73D19" offset=".348"/><stop stop-color="#F73E19" offset=".352"/><stop stop-color="#F73F18" offset=".355"/><stop stop-color="#F73F18" offset=".359"/><stop stop-color="#F74018" offset=".363"/><stop stop-color="#F74018" offset=".367"/><stop stop-color="#F74118" offset=".371"/><stop stop-color="#F74118" offset=".375"/><stop stop-color="#F74218" offset=".379"/><stop stop-color="#F64218" offset=".383"/><stop stop-color="#F64318" offset=".387"/><stop stop-color="#F64317" offset=".391"/><stop stop-color="#F64417" offset=".395"/><stop stop-color="#F64417" offset=".398"/><stop stop-color="#F64517" offset=".402"/><stop stop-color="#F64517" offset=".406"/><stop stop-color="#F64617" offset=".41"/><stop stop-color="#F64717" offset=".414"/><stop stop-color="#F64717" offset=".418"/><stop stop-color="#F64817" offset=".422"/><stop stop-color="#F64816" offset=".426"/><stop stop-color="#F64916" offset=".43"/><stop stop-color="#F54916" offset=".434"/><stop stop-color="#F54A16" offset=".438"/><stop stop-color="#F54A16" offset=".441"/><stop stop-color="#F54B16" offset=".445"/><stop stop-color="#F54B16" offset=".449"/><stop stop-color="#F54C16" offset=".453"/><stop stop-color="#F54C16" offset=".457"/><stop stop-color="#F54D15" offset=".461"/><stop stop-color="#F54D15" offset=".465"/><stop stop-color="#F54E15" offset=".469"/><stop stop-color="#F54F15" offset=".473"/><stop stop-color="#F54F15" offset=".477"/><stop stop-color="#F55015" offset=".48"/><stop stop-color="#F45015" offset=".484"/><stop stop-color="#F45115" offset=".488"/><stop stop-color="#F45115" offset=".492"/><stop stop-color="#F45214" offset=".496"/><stop stop-color="#F45214" offset=".5"/><stop stop-color="#F45314" offset=".504"/><stop stop-color="#F45314" offset=".508"/><stop stop-color="#F45414" offset=".512"/><stop stop-color="#F45414" offset=".516"/><stop stop-color="#F45514" offset=".52"/><stop stop-color="#F45614" offset=".523"/><stop stop-color="#F45614" offset=".527"/><stop stop-color="#F45713" offset=".531"/><stop stop-color="#F35713" offset=".535"/><stop stop-color="#F35813" offset=".539"/><stop stop-color="#F35813" offset=".543"/><stop stop-color="#F35913" offset=".547"/><stop stop-color="#F35913" offset=".551"/><stop stop-color="#F35A13" offset=".555"/><stop stop-color="#F35A13" offset=".559"/><stop stop-color="#F35B13" offset=".563"/><stop stop-color="#F35B12" offset=".566"/><stop stop-color="#F35C12" offset=".57"/><stop stop-color="#F35C12" offset=".574"/><stop stop-color="#F35D12" offset=".578"/><stop stop-color="#F25E12" offset=".582"/><stop stop-color="#F25E12" offset=".586"/><stop stop-color="#F25F12" offset=".59"/><stop stop-color="#F25F12" offset=".594"/><stop stop-color="#F26012" offset=".598"/><stop stop-color="#F26011" offset=".602"/><stop stop-color="#F26111" offset=".605"/><stop stop-color="#F26111" offset=".609"/><stop stop-color="#F26211" offset=".613"/><stop stop-color="#F26211" offset=".617"/><stop stop-color="#F26311" offset=".621"/><stop stop-color="#F26311" offset=".625"/><stop stop-color="#F26411" offset=".629"/><stop stop-color="#F16411" offset=".633"/><stop stop-color="#F16510" offset=".637"/><stop stop-color="#F16610" offset=".641"/><stop stop-color="#F16610" offset=".645"/><stop stop-color="#F16710" offset=".648"/><stop stop-color="#F16710" offset=".652"/><stop stop-color="#F16810" offset=".656"/><stop stop-color="#F16810" offset=".66"/><stop stop-color="#F16910" offset=".664"/><stop stop-color="#F1690F" offset=".668"/><stop stop-color="#F16A0F" offset=".672"/><stop stop-color="#F16A0F" offset=".676"/><stop stop-color="#F16B0F" offset=".68"/><stop stop-color="#F06B0F" offset=".684"/><stop stop-color="#F06C0F" offset=".688"/><stop stop-color="#F06C0F" offset=".691"/><stop stop-color="#F06D0F" offset=".695"/><stop stop-color="#F06E0F" offset=".699"/><stop stop-color="#F06E0E" offset=".703"/><stop stop-color="#F06F0E" offset=".707"/><stop stop-color="#F06F0E" offset=".711"/><stop stop-color="#F0700E" offset=".715"/><stop stop-color="#F0700E" offset=".719"/><stop stop-color="#F0710E" offset=".723"/><stop stop-color="#F0710E" offset=".727"/><stop stop-color="#F0720E" offset=".73"/><stop stop-color="#EF720E" offset=".734"/><stop stop-color="#EF730D" offset=".738"/><stop stop-color="#EF730D" offset=".742"/><stop stop-color="#EF740D" offset=".746"/><stop stop-color="#EF740D" offset=".75"/><stop stop-color="#EF750D" offset=".754"/><stop stop-color="#EF760D" offset=".758"/><stop stop-color="#EF760D" offset=".762"/><stop stop-color="#EF770D" offset=".766"/><stop stop-color="#EF770D" offset=".77"/><stop stop-color="#EF780C" offset=".773"/><stop stop-color="#EF780C" offset=".777"/><stop stop-color="#EF790C" offset=".781"/><stop stop-color="#EE790C" offset=".785"/><stop stop-color="#EE7A0C" offset=".789"/><stop stop-color="#EE7A0C" offset=".793"/><stop stop-color="#EE7B0C" offset=".797"/><stop stop-color="#EE7B0C" offset=".801"/><stop stop-color="#EE7C0C" offset=".805"/><stop stop-color="#EE7C0B" offset=".809"/><stop stop-color="#EE7D0B" offset=".813"/><stop stop-color="#EE7E0B" offset=".816"/><stop stop-color="#EE7E0B" offset=".82"/><stop stop-color="#EE7F0B" offset=".824"/><stop stop-color="#EE7F0B" offset=".828"/><stop stop-color="#EE800B" offset=".832"/><stop stop-color="#ED800B" offset=".836"/><stop stop-color="#ED810B" offset=".84"/><stop stop-color="#ED810A" offset=".844"/><stop stop-color="#ED820A" offset=".848"/><stop stop-color="#ED820A" offset=".852"/><stop stop-color="#ED830A" offset=".855"/><stop stop-color="#ED830A" offset=".859"/><stop stop-color="#ED840A" offset=".863"/><stop stop-color="#ED840A" offset=".867"/><stop stop-color="#ED850A" offset=".871"/><stop stop-color="#ED860A" offset=".875"/><stop stop-color="#ED8609" offset=".879"/><stop stop-color="#EC8709" offset=".883"/><stop stop-color="#EC8709" offset=".887"/><stop stop-color="#EC8809" offset=".891"/><stop stop-color="#EC8809" offset=".895"/><stop stop-color="#EC8909" offset=".898"/><stop stop-color="#EC8909" offset=".902"/><stop stop-color="#EC8A09" offset=".906"/><stop stop-color="#EC8A09" offset=".91"/><stop stop-color="#EC8B08" offset=".914"/><stop stop-color="#EC8B08" offset=".918"/><stop stop-color="#EC8C08" offset=".922"/><stop stop-color="#EC8D08" offset=".926"/><stop stop-color="#EC8D08" offset=".93"/><stop stop-color="#EB8E08" offset=".934"/><stop stop-color="#EB8E08" offset=".938"/><stop stop-color="#EB8F08" offset=".941"/><stop stop-color="#EB8F08" offset=".945"/><stop stop-color="#EB9007" offset=".949"/><stop stop-color="#EB9007" offset=".953"/><stop stop-color="#EB9107" offset=".957"/><stop stop-color="#EB9107" offset=".961"/><stop stop-color="#EB9207" offset=".965"/><stop stop-color="#EB9207" offset=".969"/><stop stop-color="#EB9307" offset=".973"/><stop stop-color="#EB9307" offset=".977"/><stop stop-color="#EB9407" offset=".98"/><stop stop-color="#EA9506" offset=".984"/><stop stop-color="#EA9506" offset=".988"/><stop stop-color="#EA9606" offset=".992"/><stop stop-color="#EA9606" offset=".996"/><stop stop-color="#EA9706" offset="1"/></linearGradient><linearGradient x1="8.773" gradientTransform="matrix(.10443 0 0 .1044 13.37 3.758)" xmlns:xlink="http://www.w3.org/1999/xlink" y1="176.294" x2="435.156" gradientUnits="userSpaceOnUse" y2="690.433" xlink:type="simple" xlink:actuate="onLoad" id="h" xlink:show="other"><stop stop-color="#021838" offset="0"/><stop stop-color="#021939" offset=".004"/><stop stop-color="#021A3A" offset=".008"/><stop stop-color="#031B3B" offset=".012"/><stop stop-color="#031C3C" offset=".016"/><stop stop-color="#031D3D" offset=".02"/><stop stop-color="#031E3F" offset=".023"/><stop stop-color="#041F40" offset=".027"/><stop stop-color="#042041" offset=".031"/><stop stop-color="#042142" offset=".035"/><stop stop-color="#042243" offset=".039"/><stop stop-color="#042444" offset=".043"/><stop stop-color="#052545" offset=".047"/><stop stop-color="#052646" offset=".051"/><stop stop-color="#052747" offset=".055"/><stop stop-color="#052848" offset=".059"/><stop stop-color="#06294A" offset=".063"/><stop stop-color="#062A4B" offset=".066"/><stop stop-color="#062B4C" offset=".07"/><stop stop-color="#062C4D" offset=".074"/><stop stop-color="#062D4E" offset=".078"/><stop stop-color="#072E4F" offset=".082"/><stop stop-color="#072F50" offset=".086"/><stop stop-color="#073051" offset=".09"/><stop stop-color="#073152" offset=".094"/><stop stop-color="#083254" offset=".098"/><stop stop-color="#083355" offset=".102"/><stop stop-color="#083456" offset=".105"/><stop stop-color="#083557" offset=".109"/><stop stop-color="#083658" offset=".113"/><stop stop-color="#093759" offset=".117"/><stop stop-color="#09385A" offset=".121"/><stop stop-color="#09395B" offset=".125"/><stop stop-color="#093A5C" offset=".129"/><stop stop-color="#0A3B5D" offset=".133"/><stop stop-color="#0A3C5F" offset=".137"/><stop stop-color="#0A3D60" offset=".141"/><stop stop-color="#0A3E61" offset=".145"/><stop stop-color="#0A3F62" offset=".148"/><stop stop-color="#0B4063" offset=".152"/><stop stop-color="#0B4164" offset=".156"/><stop stop-color="#0B4265" offset=".16"/><stop stop-color="#0B4366" offset=".164"/><stop stop-color="#0C4467" offset=".168"/><stop stop-color="#0C4568" offset=".172"/><stop stop-color="#0C466A" offset=".176"/><stop stop-color="#0C476B" offset=".18"/><stop stop-color="#0C486C" offset=".184"/><stop stop-color="#0D496D" offset=".188"/><stop stop-color="#0D4A6E" offset=".191"/><stop stop-color="#0D4B6F" offset=".195"/><stop stop-color="#0D4C70" offset=".199"/><stop stop-color="#0E4D71" offset=".203"/><stop stop-color="#0E4E72" offset=".207"/><stop stop-color="#0E4F73" offset=".211"/><stop stop-color="#0E5075" offset=".215"/><stop stop-color="#0E5176" offset=".219"/><stop stop-color="#0F5277" offset=".223"/><stop stop-color="#0F5378" offset=".227"/><stop stop-color="#0F5479" offset=".23"/><stop stop-color="#0F557A" offset=".234"/><stop stop-color="#10567B" offset=".238"/><stop stop-color="#10577C" offset=".242"/><stop stop-color="#10587D" offset=".246"/><stop stop-color="#10597F" offset=".25"/><stop stop-color="#105A80" offset=".254"/><stop stop-color="#115B81" offset=".258"/><stop stop-color="#115D82" offset=".262"/><stop stop-color="#115E83" offset=".266"/><stop stop-color="#115F84" offset=".27"/><stop stop-color="#126085" offset=".273"/><stop stop-color="#126186" offset=".277"/><stop stop-color="#126287" offset=".281"/><stop stop-color="#126388" offset=".285"/><stop stop-color="#12648A" offset=".289"/><stop stop-color="#13658B" offset=".293"/><stop stop-color="#13668C" offset=".297"/><stop stop-color="#13678D" offset=".301"/><stop stop-color="#13688E" offset=".305"/><stop stop-color="#14698F" offset=".309"/><stop stop-color="#146A90" offset=".313"/><stop stop-color="#146B91" offset=".316"/><stop stop-color="#146C92" offset=".32"/><stop stop-color="#146D93" offset=".324"/><stop stop-color="#156E95" offset=".328"/><stop stop-color="#156F96" offset=".332"/><stop stop-color="#157097" offset=".336"/><stop stop-color="#157198" offset=".34"/><stop stop-color="#167299" offset=".344"/><stop stop-color="#16739A" offset=".348"/><stop stop-color="#16749B" offset=".352"/><stop stop-color="#16759C" offset=".355"/><stop stop-color="#16769D" offset=".359"/><stop stop-color="#17779E" offset=".363"/><stop stop-color="#1778A0" offset=".367"/><stop stop-color="#1779A1" offset=".371"/><stop stop-color="#177AA2" offset=".375"/><stop stop-color="#187BA3" offset=".379"/><stop stop-color="#187CA4" offset=".383"/><stop stop-color="#187DA5" offset=".387"/><stop stop-color="#187EA6" offset=".391"/><stop stop-color="#187FA7" offset=".395"/><stop stop-color="#1980A8" offset=".398"/><stop stop-color="#1981A9" offset=".402"/><stop stop-color="#1982AB" offset=".406"/><stop stop-color="#1983AC" offset=".41"/><stop stop-color="#1A84AD" offset=".414"/><stop stop-color="#1A85AE" offset=".418"/><stop stop-color="#1A86AF" offset=".422"/><stop stop-color="#1A87B0" offset=".426"/><stop stop-color="#1A88B1" offset=".43"/><stop stop-color="#1B89B2" offset=".434"/><stop stop-color="#1B8AB3" offset=".438"/><stop stop-color="#1B8BB5" offset=".441"/><stop stop-color="#1B8CB6" offset=".445"/><stop stop-color="#1C8DB7" offset=".449"/><stop stop-color="#1C8EB8" offset=".453"/><stop stop-color="#1C8FB9" offset=".457"/><stop stop-color="#1C90BA" offset=".461"/><stop stop-color="#1C91BB" offset=".465"/><stop stop-color="#1D92BC" offset=".469"/><stop stop-color="#1D93BD" offset=".473"/><stop stop-color="#1D94BE" offset=".477"/><stop stop-color="#1D96C0" offset=".48"/><stop stop-color="#1E97C1" offset=".484"/><stop stop-color="#1E98C2" offset=".488"/><stop stop-color="#1E99C3" offset=".492"/><stop stop-color="#1E9AC4" offset=".496"/><stop stop-color="#1E9BC5" offset=".5"/><stop stop-color="#1F9CC6" offset=".504"/><stop stop-color="#1F9DC7" offset=".508"/><stop stop-color="#1F9EC8" offset=".512"/><stop stop-color="#1F9FC9" offset=".516"/><stop stop-color="#20A0CB" offset=".52"/><stop stop-color="#20A1CC" offset=".523"/><stop stop-color="#20A2CD" offset=".527"/><stop stop-color="#20A3CE" offset=".531"/><stop stop-color="#20A4CF" offset=".535"/><stop stop-color="#21A5D0" offset=".539"/><stop stop-color="#21A6D1" offset=".543"/><stop stop-color="#21A7D2" offset=".547"/><stop stop-color="#21A8D3" offset=".551"/><stop stop-color="#22A9D5" offset=".555"/><stop stop-color="#22AAD6" offset=".559"/><stop stop-color="#22ABD7" offset=".563"/><stop stop-color="#22ACD8" offset=".566"/><stop stop-color="#22ADD9" offset=".57"/><stop stop-color="#23AEDA" offset=".574"/><stop stop-color="#23AFDB" offset=".578"/><stop stop-color="#23B0DC" offset=".582"/><stop stop-color="#23B1DD" offset=".586"/><stop stop-color="#24B2DE" offset=".59"/><stop stop-color="#24B3E0" offset=".594"/><stop stop-color="#24B4E1" offset=".598"/><stop stop-color="#24B5E2" offset=".602"/><stop stop-color="#24B6E3" offset=".605"/><stop stop-color="#25B7E4" offset=".609"/><stop stop-color="#25B8E5" offset=".613"/><stop stop-color="#25B9E6" offset=".617"/><stop stop-color="#25BAE7" offset=".621"/><stop stop-color="#26BBE8" offset=".625"/><stop stop-color="#26BCE9" offset=".629"/><stop stop-color="#26BDEB" offset=".633"/><stop stop-color="#26BEEC" offset=".637"/><stop stop-color="#26BFED" offset=".641"/><stop stop-color="#27C0EE" offset=".645"/><stop stop-color="#27C1EF" offset=".648"/><stop stop-color="#27C2F0" offset=".652"/><stop stop-color="#27C3F1" offset=".656"/><stop stop-color="#28C4F2" offset=".66"/><stop stop-color="#28C5F3" offset=".664"/><stop stop-color="#28C6F4" offset=".668"/><stop stop-color="#28C7F6" offset=".672"/><stop stop-color="#28C8F7" offset=".676"/><stop stop-color="#29C9F8" offset=".68"/><stop stop-color="#29CAF9" offset=".684"/><stop stop-color="#29CBFA" offset=".688"/><stop stop-color="#29CCFB" offset=".691"/><stop stop-color="#2ACDFC" offset=".695"/><stop stop-color="#2ACFFD" offset=".699"/><stop stop-color="#2AD0FE" offset=".703"/><stop stop-color="#2AD0FF" offset=".719"/><stop stop-color="#2AD0FF" offset=".75"/><stop stop-color="#2AD0FF" offset="1"/></linearGradient><linearGradient x1="0" gradientTransform="matrix(.10443 0 0 .1044 13.37 3.758)" xmlns:xlink="http://www.w3.org/1999/xlink" y1="164.74" x2="488.36" gradientUnits="userSpaceOnUse" y2="164.74" xlink:type="simple" xlink:actuate="onLoad" id="m" xlink:show="other"><stop stop-color="#E21465" offset="0"/><stop stop-color="#E11365" offset=".004"/><stop stop-color="#E11364" offset=".008"/><stop stop-color="#E11364" offset=".012"/><stop stop-color="#E01263" offset=".016"/><stop stop-color="#E01263" offset=".02"/><stop stop-color="#E01162" offset=".023"/><stop stop-color="#DF1162" offset=".027"/><stop stop-color="#DF1061" offset=".031"/><stop stop-color="#DF1060" offset=".035"/><stop stop-color="#DE0F60" offset=".039"/><stop stop-color="#DE0F5F" offset=".043"/><stop stop-color="#DE0F5F" offset=".047"/><stop stop-color="#DE0E5E" offset=".051"/><stop stop-color="#DD0E5E" offset=".055"/><stop stop-color="#DD0D5D" offset=".059"/><stop stop-color="#DD0D5D" offset=".063"/><stop stop-color="#DC0C5C" offset=".066"/><stop stop-color="#DC0C5C" offset=".07"/><stop stop-color="#DC0B5B" offset=".074"/><stop stop-color="#DB0B5B" offset=".078"/><stop stop-color="#DB0B5A" offset=".082"/><stop stop-color="#DB0A59" offset=".086"/><stop stop-color="#DB0A59" offset=".09"/><stop stop-color="#DA0958" offset=".094"/><stop stop-color="#DA0958" offset=".098"/><stop stop-color="#DA0857" offset=".102"/><stop stop-color="#D90857" offset=".105"/><stop stop-color="#D90856" offset=".109"/><stop stop-color="#D90756" offset=".113"/><stop stop-color="#D80755" offset=".117"/><stop stop-color="#D80655" offset=".121"/><stop stop-color="#D80654" offset=".125"/><stop stop-color="#D80553" offset=".129"/><stop stop-color="#D70553" offset=".133"/><stop stop-color="#D70452" offset=".137"/><stop stop-color="#D70452" offset=".141"/><stop stop-color="#D60451" offset=".145"/><stop stop-color="#D60351" offset=".148"/><stop stop-color="#D60350" offset=".152"/><stop stop-color="#D50250" offset=".156"/><stop stop-color="#D5024F" offset=".16"/><stop stop-color="#D5014F" offset=".164"/><stop stop-color="#D5014E" offset=".168"/><stop stop-color="#D4004E" offset=".172"/><stop stop-color="#D4004D" offset=".188"/><stop stop-color="#D3004D" offset=".203"/><stop stop-color="#D2004C" offset=".219"/><stop stop-color="#D2004C" offset=".234"/><stop stop-color="#D1004C" offset=".25"/><stop stop-color="#D0004C" offset=".266"/><stop stop-color="#D0004B" offset=".281"/><stop stop-color="#CF004B" offset=".297"/><stop stop-color="#CE004B" offset=".313"/><stop stop-color="#CD004B" offset=".32"/><stop stop-color="#CC004A" offset=".328"/><stop stop-color="#CC004A" offset=".336"/><stop stop-color="#CB004A" offset=".344"/><stop stop-color="#CA004A" offset=".352"/><stop stop-color="#CA004A" offset=".359"/><stop stop-color="#C90049" offset=".367"/><stop stop-color="#C80049" offset=".375"/><stop stop-color="#C70049" offset=".383"/><stop stop-color="#C70049" offset=".391"/><stop stop-color="#C60048" offset=".398"/><stop stop-color="#C50048" offset=".406"/><stop stop-color="#C40048" offset=".414"/><stop stop-color="#C40048" offset=".422"/><stop stop-color="#C30047" offset=".43"/><stop stop-color="#C20047" offset=".438"/><stop stop-color="#C20047" offset=".445"/><stop stop-color="#C10047" offset=".453"/><stop stop-color="#C00046" offset=".461"/><stop stop-color="#BF0046" offset=".469"/><stop stop-color="#BF0046" offset=".477"/><stop stop-color="#BE0046" offset=".484"/><stop stop-color="#BD0046" offset=".492"/><stop stop-color="#BD0045" offset=".5"/><stop stop-color="#BC0045" offset=".508"/><stop stop-color="#BB0045" offset=".512"/><stop stop-color="#BA0045" offset=".516"/><stop stop-color="#BA0044" offset=".52"/><stop stop-color="#B90044" offset=".523"/><stop stop-color="#B90044" offset=".527"/><stop stop-color="#B80044" offset=".531"/><stop stop-color="#B80044" offset=".535"/><stop stop-color="#B70044" offset=".539"/><stop stop-color="#B70043" offset=".543"/><stop stop-color="#B60043" offset=".547"/><stop stop-color="#B60043" offset=".551"/><stop stop-color="#B50043" offset=".555"/><stop stop-color="#B50043" offset=".559"/><stop stop-color="#B40042" offset=".563"/><stop stop-color="#B40042" offset=".566"/><stop stop-color="#B30042" offset=".57"/><stop stop-color="#B30042" offset=".574"/><stop stop-color="#B20042" offset=".578"/><stop stop-color="#B20042" offset=".582"/><stop stop-color="#B10041" offset=".586"/><stop stop-color="#B10041" offset=".59"/><stop stop-color="#B00041" offset=".594"/><stop stop-color="#B00041" offset=".598"/><stop stop-color="#AF0041" offset=".602"/><stop stop-color="#AF0041" offset=".605"/><stop stop-color="#AE0040" offset=".609"/><stop stop-color="#AE0040" offset=".613"/><stop stop-color="#AD0040" offset=".617"/><stop stop-color="#AD0040" offset=".621"/><stop stop-color="#AC0040" offset=".625"/><stop stop-color="#AC0040" offset=".629"/><stop stop-color="#AB003F" offset=".633"/><stop stop-color="#AB003F" offset=".637"/><stop stop-color="#AA003F" offset=".641"/><stop stop-color="#AA003F" offset=".645"/><stop stop-color="#A9003F" offset=".648"/><stop stop-color="#A8003E" offset=".652"/><stop stop-color="#A8003E" offset=".656"/><stop stop-color="#A7003E" offset=".66"/><stop stop-color="#A7003E" offset=".664"/><stop stop-color="#A6003E" offset=".668"/><stop stop-color="#A6003E" offset=".672"/><stop stop-color="#A5003D" offset=".676"/><stop stop-color="#A5003D" offset=".68"/><stop stop-color="#A4003D" offset=".684"/><stop stop-color="#A4003D" offset=".688"/><stop stop-color="#A3003D" offset=".691"/><stop stop-color="#A3003D" offset=".695"/><stop stop-color="#A2003C" offset=".699"/><stop stop-color="#A2003C" offset=".703"/><stop stop-color="#A1003C" offset=".707"/><stop stop-color="#A1003C" offset=".711"/><stop stop-color="#A0003C" offset=".715"/><stop stop-color="#A0003C" offset=".719"/><stop stop-color="#9F003B" offset=".723"/><stop stop-color="#9F003B" offset=".727"/><stop stop-color="#9E003B" offset=".73"/><stop stop-color="#9E003B" offset=".734"/><stop stop-color="#9D003B" offset=".738"/><stop stop-color="#9C003A" offset=".742"/><stop stop-color="#9C003A" offset=".746"/><stop stop-color="#9B003A" offset=".75"/><stop stop-color="#9A003A" offset=".754"/><stop stop-color="#9A003A" offset=".758"/><stop stop-color="#990039" offset=".762"/><stop stop-color="#990039" offset=".766"/><stop stop-color="#980039" offset=".77"/><stop stop-color="#970039" offset=".773"/><stop stop-color="#970039" offset=".777"/><stop stop-color="#960038" offset=".781"/><stop stop-color="#950038" offset=".785"/><stop stop-color="#950038" offset=".789"/><stop stop-color="#940038" offset=".793"/><stop stop-color="#930037" offset=".797"/><stop stop-color="#930037" offset=".801"/><stop stop-color="#920037" offset=".805"/><stop stop-color="#910037" offset=".809"/><stop stop-color="#910037" offset=".813"/><stop stop-color="#900036" offset=".816"/><stop stop-color="#8F0036" offset=".82"/><stop stop-color="#8F0036" offset=".824"/><stop stop-color="#8E0036" offset=".828"/><stop stop-color="#8D0036" offset=".832"/><stop stop-color="#8D0035" offset=".836"/><stop stop-color="#8C0035" offset=".84"/><stop stop-color="#8B0035" offset=".844"/><stop stop-color="#8B0035" offset=".848"/><stop stop-color="#8A0035" offset=".852"/><stop stop-color="#890034" offset=".855"/><stop stop-color="#890034" offset=".859"/><stop stop-color="#880034" offset=".863"/><stop stop-color="#880034" offset=".867"/><stop stop-color="#870034" offset=".871"/><stop stop-color="#860033" offset=".875"/><stop stop-color="#860033" offset=".879"/><stop stop-color="#850033" offset=".883"/><stop stop-color="#840033" offset=".887"/><stop stop-color="#840033" offset=".891"/><stop stop-color="#830032" offset=".895"/><stop stop-color="#820032" offset=".898"/><stop stop-color="#820032" offset=".902"/><stop stop-color="#810032" offset=".906"/><stop stop-color="#800031" offset=".91"/><stop stop-color="#800031" offset=".914"/><stop stop-color="#7F0031" offset=".918"/><stop stop-color="#7E0031" offset=".922"/><stop stop-color="#7E0031" offset=".926"/><stop stop-color="#7D0030" offset=".93"/><stop stop-color="#7C0030" offset=".934"/><stop stop-color="#7C0030" offset=".938"/><stop stop-color="#7B0030" offset=".941"/><stop stop-color="#7A0030" offset=".945"/><stop stop-color="#7A002F" offset=".949"/><stop stop-color="#79002F" offset=".953"/><stop stop-color="#78002F" offset=".957"/><stop stop-color="#78002F" offset=".961"/><stop stop-color="#77002F" offset=".965"/><stop stop-color="#77002E" offset=".969"/><stop stop-color="#76002E" offset=".973"/><stop stop-color="#75002E" offset=".977"/><stop stop-color="#74002E" offset=".98"/><stop stop-color="#74002D" offset=".984"/><stop stop-color="#73002D" offset=".988"/><stop stop-color="#72002D" offset=".992"/><stop stop-color="#71002D" offset=".996"/><stop stop-color="#71002C" offset="1"/></linearGradient></defs><path fill="#FFF" d="M-45 -7.5H495V82.5H-45z"/><path fill="#FFF" d="M-45 -7.5H495V82.5H-45z"/><path fill="#FFF" d="M-45 -7.5H495V82.5H-45z"/><g clip-path="url(#a)"><g clip-path="url(#b)"><path fill="url(#c)" d="M 13.371094 50.066406 L 13.371094 71.242188 L 38.613281 71.242188 L 38.613281 50.066406 Z M 13.371094 50.066406"/></g></g><g clip-path="url(#d)"><g clip-path="url(#e)"><path fill="#FF0824" d="M 13.371094 50.066406 L 13.371094 71.242188 L 38.613281 71.242188 L 38.613281 50.066406 Z M 13.371094 50.066406"/></g></g><g clip-path="url(#f)"><g clip-path="url(#g)"><path fill="url(#h)" d="M 13.371094 22.925781 L 13.371094 71.238281 L 64.371094 71.238281 L 64.371094 22.925781 Z M 13.371094 22.925781"/></g></g><g clip-path="url(#i)"><g clip-path="url(#j)"><path fill="#000F2E" d="M 13.371094 22.925781 L 13.371094 38.339844 L 38.808594 38.339844 L 38.808594 22.925781 Z M 13.371094 22.925781"/></g></g><g clip-path="url(#k)"><g clip-path="url(#l)"><path fill="url(#m)" d="M 13.371094 3.757812 L 13.371094 38.160156 L 64.371094 38.160156 L 64.371094 3.757812 Z M 13.371094 3.757812"/></g></g><g fill="#7D002F"><g><g><path d="M 8.65625 -15.4375 L 8.65625 -11.890625 L 17.296875 -11.890625 L 17.296875 -6.625 L 8.65625 -6.625 L 8.65625 0 L 1.6875 0 L 1.6875 -20.6875 L 18.5 -20.6875 L 18.5 -15.4375 Z M 8.65625 -15.4375" transform="translate(79.644 47.625)"/></g></g></g><g fill="#7D002F"><g><g><path d="M 10.546875 -5.203125 L 8.65625 -5.203125 L 8.65625 0 L 1.6875 0 L 1.6875 -20.6875 L 11.640625 -20.6875 C 13.554688 -20.6875 15.222656 -20.367188 16.640625 -19.734375 C 18.054688 -19.109375 19.148438 -18.203125 19.921875 -17.015625 C 20.691406 -15.835938 21.078125 -14.460938 21.078125 -12.890625 C 21.078125 -11.410156 20.738281 -10.117188 20.0625 -9.015625 C 19.394531 -7.910156 18.429688 -7.035156 17.171875 -6.390625 L 21.515625 0 L 14.078125 0 Z M 14.046875 -12.890625 C 14.046875 -13.660156 13.804688 -14.253906 13.328125 -14.671875 C 12.859375 -15.097656 12.148438 -15.3125 11.203125 -15.3125 L 8.65625 -15.3125 L 8.65625 -10.46875 L 11.203125 -10.46875 C 12.148438 -10.46875 12.859375 -10.675781 13.328125 -11.09375 C 13.804688 -11.519531 14.046875 -12.117188 14.046875 -12.890625 Z M 14.046875 -12.890625" transform="translate(104.59 47.625)"/></g></g></g><g fill="#7D002F"><g><g><path d="M 18.890625 -5.265625 L 18.890625 0 L 1.6875 0 L 1.6875 -20.6875 L 18.5 -20.6875 L 18.5 -15.4375 L 8.546875 -15.4375 L 8.546875 -13 L 17.296875 -13 L 17.296875 -7.984375 L 8.546875 -7.984375 L 8.546875 -5.265625 Z M 18.890625 -5.265625" transform="translate(132.52 47.625)"/></g></g></g><g fill="#7D002F"><g><g><path d="M 18.890625 -5.265625 L 18.890625 0 L 1.6875 0 L 1.6875 -20.6875 L 18.5 -20.6875 L 18.5 -15.4375 L 8.546875 -15.4375 L 8.546875 -13 L 17.296875 -13 L 17.296875 -7.984375 L 8.546875 -7.984375 L 8.546875 -5.265625 Z M 18.890625 -5.265625" transform="translate(158.323 47.625)"/></g></g></g><g fill="#7D002F"><g><g><path d="M 1.6875 -20.6875 L 11.890625 -20.6875 C 14.191406 -20.6875 16.222656 -20.269531 17.984375 -19.4375 C 19.753906 -18.601562 21.125 -17.40625 22.09375 -15.84375 C 23.070312 -14.289062 23.5625 -12.457031 23.5625 -10.34375 C 23.5625 -8.238281 23.070312 -6.40625 22.09375 -4.84375 C 21.125 -3.289062 19.753906 -2.09375 17.984375 -1.25 C 16.222656 -0.414062 14.191406 0 11.890625 0 L 1.6875 0 Z M 11.59375 -5.4375 C 13.082031 -5.4375 14.273438 -5.863281 15.171875 -6.71875 C 16.078125 -7.582031 16.53125 -8.789062 16.53125 -10.34375 C 16.53125 -11.90625 16.078125 -13.113281 15.171875 -13.96875 C 14.273438 -14.820312 13.082031 -15.25 11.59375 -15.25 L 8.65625 -15.25 L 8.65625 -5.4375 Z M 11.59375 -5.4375" transform="translate(184.125 47.625)"/></g></g></g><g fill="#7D002F"><g><g><path d="M 12.53125 0.46875 C 10.300781 0.46875 8.300781 0.00390625 6.53125 -0.921875 C 4.757812 -1.847656 3.367188 -3.132812 2.359375 -4.78125 C 1.359375 -6.425781 0.859375 -8.28125 0.859375 -10.34375 C 0.859375 -12.414062 1.359375 -14.273438 2.359375 -15.921875 C 3.367188 -17.566406 4.757812 -18.851562 6.53125 -19.78125 C 8.300781 -20.707031 10.300781 -21.171875 12.53125 -21.171875 C 14.757812 -21.171875 16.757812 -20.707031 18.53125 -19.78125 C 20.3125 -18.851562 21.703125 -17.566406 22.703125 -15.921875 C 23.710938 -14.273438 24.21875 -12.414062 24.21875 -10.34375 C 24.21875 -8.28125 23.710938 -6.425781 22.703125 -4.78125 C 21.703125 -3.132812 20.3125 -1.847656 18.53125 -0.921875 C 16.757812 0.00390625 14.757812 0.46875 12.53125 0.46875 Z M 12.53125 -5.171875 C 13.394531 -5.171875 14.175781 -5.378906 14.875 -5.796875 C 15.582031 -6.222656 16.140625 -6.828125 16.546875 -7.609375 C 16.960938 -8.390625 17.171875 -9.300781 17.171875 -10.34375 C 17.171875 -11.382812 16.960938 -12.296875 16.546875 -13.078125 C 16.140625 -13.859375 15.582031 -14.457031 14.875 -14.875 C 14.175781 -15.300781 13.394531 -15.515625 12.53125 -15.515625 C 11.664062 -15.515625 10.882812 -15.300781 10.1875 -14.875 C 9.488281 -14.457031 8.929688 -13.859375 8.515625 -13.078125 C 8.097656 -12.296875 7.890625 -11.382812 7.890625 -10.34375 C 7.890625 -9.300781 8.097656 -8.390625 8.515625 -7.609375 C 8.929688 -6.828125 9.488281 -6.222656 10.1875 -5.796875 C 10.882812 -5.378906 11.664062 -5.171875 12.53125 -5.171875 Z M 12.53125 -5.171875" transform="translate(214.45 47.625)"/></g></g></g><g fill="#7D002F"><g><g><path d="M 20.15625 0 L 20.109375 -9.4375 L 15.609375 -1.859375 L 12.53125 -1.859375 L 8.046875 -9.109375 L 8.046875 0 L 1.6875 0 L 1.6875 -20.6875 L 7.421875 -20.6875 L 14.15625 -9.671875 L 20.71875 -20.6875 L 26.453125 -20.6875 L 26.515625 0 Z M 20.15625 0" transform="translate(245.424 47.625)"/></g></g></g><g fill="#03989E"><g><g><path d="M 20.1875 0 L 20.125 -9.4375 L 15.625 -1.859375 L 12.546875 -1.859375 L 8.046875 -9.109375 L 8.046875 0 L 1.6875 0 L 1.6875 -20.71875 L 7.421875 -20.71875 L 14.171875 -9.671875 L 20.75 -20.71875 L 26.484375 -20.71875 L 26.546875 0 Z M 20.1875 0" transform="translate(283.652 47.621)"/></g></g></g><g fill="#03989E"><g><g><path d="M 8.734375 -16.484375 C 11.566406 -16.484375 13.734375 -15.847656 15.234375 -14.578125 C 16.734375 -13.304688 17.484375 -11.347656 17.484375 -8.703125 L 17.484375 0 L 11.28125 0 L 11.28125 -2.125 C 10.507812 -0.507812 8.976562 0.296875 6.6875 0.296875 C 5.40625 0.296875 4.316406 0.078125 3.421875 -0.359375 C 2.523438 -0.804688 1.84375 -1.410156 1.375 -2.171875 C 0.914062 -2.929688 0.6875 -3.785156 0.6875 -4.734375 C 0.6875 -6.328125 1.296875 -7.539062 2.515625 -8.375 C 3.734375 -9.207031 5.585938 -9.625 8.078125 -9.625 L 10.765625 -9.625 C 10.554688 -10.882812 9.539062 -11.515625 7.71875 -11.515625 C 6.988281 -11.515625 6.25 -11.398438 5.5 -11.171875 C 4.75 -10.941406 4.109375 -10.628906 3.578125 -10.234375 L 1.453125 -14.65625 C 2.378906 -15.21875 3.5 -15.660156 4.8125 -15.984375 C 6.125 -16.316406 7.429688 -16.484375 8.734375 -16.484375 Z M 8.703125 -3.734375 C 9.171875 -3.734375 9.59375 -3.859375 9.96875 -4.109375 C 10.34375 -4.367188 10.617188 -4.753906 10.796875 -5.265625 L 10.796875 -6.390625 L 9.140625 -6.390625 C 7.785156 -6.390625 7.109375 -5.9375 7.109375 -5.03125 C 7.109375 -4.65625 7.25 -4.34375 7.53125 -4.09375 C 7.8125 -3.851562 8.203125 -3.734375 8.703125 -3.734375 Z M 8.703125 -3.734375" transform="translate(317.209 47.621)"/></g></g></g><g fill="#03989E"><g><g><path d="M 13.40625 -0.5625 C 12.394531 0.0078125 11.023438 0.296875 9.296875 0.296875 C 7.023438 0.296875 5.273438 -0.25 4.046875 -1.34375 C 2.828125 -2.4375 2.21875 -4.082031 2.21875 -6.28125 L 2.21875 -10.421875 L 0 -10.421875 L 0 -15.296875 L 2.21875 -15.296875 L 2.21875 -19.828125 L 8.90625 -19.828125 L 8.90625 -15.296875 L 12.21875 -15.296875 L 12.21875 -10.421875 L 8.90625 -10.421875 L 8.90625 -6.328125 C 8.90625 -5.835938 9.03125 -5.453125 9.28125 -5.171875 C 9.539062 -4.898438 9.878906 -4.765625 10.296875 -4.765625 C 10.867188 -4.765625 11.375 -4.910156 11.8125 -5.203125 Z M 13.40625 -0.5625" transform="translate(341.445 47.621)"/></g></g></g><g fill="#03989E"><g><g><path d="M 12.71875 -16.484375 C 14.71875 -16.484375 16.320312 -15.878906 17.53125 -14.671875 C 18.75 -13.472656 19.359375 -11.660156 19.359375 -9.234375 L 19.359375 0 L 12.671875 0 L 12.671875 -8.078125 C 12.671875 -9.929688 12.007812 -10.859375 10.6875 -10.859375 C 9.9375 -10.859375 9.328125 -10.597656 8.859375 -10.078125 C 8.398438 -9.554688 8.171875 -8.734375 8.171875 -7.609375 L 8.171875 0 L 1.484375 0 L 1.484375 -21.953125 L 8.171875 -21.953125 L 8.171875 -14.890625 C 9.410156 -15.953125 10.925781 -16.484375 12.71875 -16.484375 Z M 12.71875 -16.484375" transform="translate(360.384 47.621)"/></g></g></g><g fill="#03989E"><g><g><path d="M 7.8125 0.296875 C 6.425781 0.296875 5.0625 0.148438 3.71875 -0.140625 C 2.382812 -0.441406 1.300781 -0.828125 0.46875 -1.296875 L 2.3125 -5.71875 C 3.0625 -5.257812 3.945312 -4.898438 4.96875 -4.640625 C 6 -4.390625 6.992188 -4.265625 7.953125 -4.265625 C 8.722656 -4.265625 9.257812 -4.328125 9.5625 -4.453125 C 9.875 -4.578125 10.03125 -4.769531 10.03125 -5.03125 C 10.03125 -5.289062 9.835938 -5.46875 9.453125 -5.5625 C 9.066406 -5.664062 8.441406 -5.765625 7.578125 -5.859375 C 6.253906 -6.015625 5.128906 -6.21875 4.203125 -6.46875 C 3.273438 -6.71875 2.457031 -7.195312 1.75 -7.90625 C 1.050781 -8.613281 0.703125 -9.628906 0.703125 -10.953125 C 0.703125 -11.992188 1.019531 -12.925781 1.65625 -13.75 C 2.289062 -14.582031 3.234375 -15.242188 4.484375 -15.734375 C 5.734375 -16.234375 7.238281 -16.484375 9 -16.484375 C 10.21875 -16.484375 11.414062 -16.367188 12.59375 -16.140625 C 13.769531 -15.910156 14.769531 -15.582031 15.59375 -15.15625 L 13.765625 -10.75 C 12.335938 -11.53125 10.773438 -11.921875 9.078125 -11.921875 C 7.617188 -11.921875 6.890625 -11.664062 6.890625 -11.15625 C 6.890625 -10.894531 7.085938 -10.710938 7.484375 -10.609375 C 7.878906 -10.503906 8.503906 -10.398438 9.359375 -10.296875 C 10.671875 -10.140625 11.785156 -9.929688 12.703125 -9.671875 C 13.628906 -9.421875 14.441406 -8.9375 15.140625 -8.21875 C 15.835938 -7.507812 16.1875 -6.492188 16.1875 -5.171875 C 16.1875 -4.171875 15.867188 -3.253906 15.234375 -2.421875 C 14.609375 -1.597656 13.660156 -0.9375 12.390625 -0.4375 C 11.128906 0.0507812 9.601562 0.296875 7.8125 0.296875 Z M 7.8125 0.296875" transform="translate(386.484 47.621)"/></g></g></g></svg>